<svg xmlns="http://www.w3.org/2000/svg" width="300" height="400" viewBox="0 0 300 400">
<rect width="300" height="400" rx="14" fill="#fdf2e3"/>
<rect x="10" y="10" width="280" height="380" rx="8" fill="none" stroke="#d2691e" stroke-width="6"/>
<text x="26" y="52" font-family="Georgia, 'Times New Roman', serif" font-size="34" font-weight="bold" fill="#2b1d14">28</text>
<g transform="translate(50 70)" stroke="#2b1d14" stroke-width="4" stroke-linejoin="round" stroke-linecap="round">
    <ellipse cx="95" cy="120" rx="65" ry="50" fill="#d2a26b"/>
    <circle cx="145" cy="70" r="28" fill="#d2a26b"/>
    <path d="M135 42 Q140 25 150 38 Q158 22 165 45 Z" fill="#c0392b"/>
    <path d="M170 68 L192 75 L170 82 Z" fill="#f4c430"/>
    <path d="M160 85 Q168 100 156 100 Z" fill="#c0392b"/>
    <circle cx="153" cy="65" r="4" fill="#2b1d14"/>
    <path d="M30 110 Q10 80 25 60 Q40 90 45 100" fill="#8b4513"/>
    <path d="M80 165 L75 192 M110 165 L115 192" fill="none" stroke="#e67e22" stroke-width="5"/>
</g>
<rect x="24" y="310" width="252" height="62" rx="6" fill="#d2691e"/>
<text x="150" y="352" text-anchor="middle" font-family="Georgia, 'Times New Roman', serif" font-size="32" font-weight="bold" fill="#ffffff">GALLINA</text>
</svg>
