<svg xmlns="http://www.w3.org/2000/svg" width="300" height="400" viewBox="0 0 300 400">
<rect width="300" height="400" rx="14" fill="#fdf2e3"/>
<rect x="10" y="10" width="280" height="380" rx="8" fill="none" stroke="#d2691e" stroke-width="6"/>
<text x="26" y="52" font-family="Georgia, 'Times New Roman', serif" font-size="34" font-weight="bold" fill="#2b1d14">16</text>
<g transform="translate(50 70)" stroke="#2b1d14" stroke-width="4" stroke-linejoin="round" stroke-linecap="round">
    <path d="M30 90 L165 60 L175 105 L35 130 Z" fill="#cfd8dc"/>
    <path d="M35 130 L42 140 L50 128 L58 138 L66 125 L74 135 L82 122 L90 132 L98 119 L106 129 L114 116 L122 126 L130 113 L138 123 L146 110 L154 120 L162 107 L175 105" fill="#cfd8dc"/>
    <path d="M140 50 Q200 40 195 90 Q190 120 170 110 L160 60 Z" fill="#8b4513"/>
    <ellipse cx="177" cy="78" rx="8" ry="14" fill="#fdf2e3"/>
</g>
<rect x="24" y="310" width="252" height="62" rx="6" fill="#d2691e"/>
<text x="150" y="352" text-anchor="middle" font-family="Georgia, 'Times New Roman', serif" font-size="32" font-weight="bold" fill="#ffffff">SERRUCHO</text>
</svg>
